inDegrees=no
num_controls=7
num_derivatives=13
num_iterations=120
num_multipliers=7
num_parameters=0
num_slacks=7
num_states=26
objective=0.444811
objective_accelerations=0.057998
objective_balance=0.003589
objective_effort=0.023275
objective_height=0.354459
objective_ligament=0.005489
solver_duration=1794.975398
status=Solve_Succeeded
success=true
DataType=double
version=3
OpenSimVersion=4.5
endheader
time	/jointset/ground_pelvis/pelvis_tilt/value	/jointset/ground_pelvis/pelvis_tx/value	/jointset/ground_pelvis/pelvis_ty/value	/jointset/hip_l/hip_flexion_l/value	/jointset/hip_l/hip_adduction_l/value	/jointset/hip_l/hip_rotation_l/value	/jointset/back/lumbar_extension/value	/jointset/patellofemoral_l/patellar_flexion_l/value	/jointset/knee_l/knee_flexion_l/value	/jointset/knee_l/knee_adduction_l/value	/jointset/knee_l/knee_rotation_l/value	/jointset/ankle_l/ankle_angle_l/value	/jointset/subtalar_l/subtalar_angle_l/value	/jointset/ground_pelvis/pelvis_tilt/speed	/jointset/ground_pelvis/pelvis_tx/speed	/jointset/ground_pelvis/pelvis_ty/speed	/jointset/hip_l/hip_flexion_l/speed	/jointset/hip_l/hip_adduction_l/speed	/jointset/hip_l/hip_rotation_l/speed	/jointset/back/lumbar_extension/speed	/jointset/patellofemoral_l/patellar_flexion_l/speed	/jointset/knee_l/knee_flexion_l/speed	/jointset/knee_l/knee_adduction_l/speed	/jointset/knee_l/knee_rotation_l/speed	/jointset/ankle_l/ankle_angle_l/speed	/jointset/subtalar_l/subtalar_angle_l/speed	/forceset/tau_hip_flexion_l	/forceset/tau_hip_adduction_l	/forceset/tau_hip_rotation_l	/forceset/tau_knee_flexion_l	/forceset/tau_ankle_angle_l	/forceset/tau_subtalar_angle_l	/forceset/tau_lumbar_extension	lambda_cid13_p0	lambda_cid13_p1	lambda_cid13_p2	lambda_cid13_p3	lambda_cid13_p4	lambda_cid13_p5	lambda_cid14_p0	/jointset/ground_pelvis/pelvis_tilt/accel	/jointset/ground_pelvis/pelvis_tx/accel	/jointset/ground_pelvis/pelvis_ty/accel	/jointset/hip_l/hip_flexion_l/accel	/jointset/hip_l/hip_adduction_l/accel	/jointset/hip_l/hip_rotation_l/accel	/jointset/back/lumbar_extension/accel	/jointset/patellofemoral_l/patellar_flexion_l/accel	/jointset/knee_l/knee_flexion_l/accel	/jointset/knee_l/knee_adduction_l/accel	/jointset/knee_l/knee_rotation_l/accel	/jointset/ankle_l/ankle_angle_l/accel	/jointset/subtalar_l/subtalar_angle_l/accel	gamma_cid13_p0	gamma_cid13_p1	gamma_cid13_p2	gamma_cid13_p3	gamma_cid13_p4	gamma_cid13_p5	gamma_cid14_p0
0	-0.03908586767978562	0.06871940750553143	0.895933134283279	0.1955287580552426	-0.3221914523999427	-0.4797003081982375	-0.1379045077516729	0.07015288079085211	0.07015288079084844	-0.174532472299793	-0.1143511071969898	-0.06701059314715049	0.003579089045389297	0	0	0	0	0	0	0	0	0	0	0	0	0	0.1081003372598165	-0.1029625246327899	-0.02993969952926614	-0.2371813781655327	0.1951476997136689	-0.01290561018580127	-0.05268354809683388	27.11031710555344	-1.918087039027796	3.140936039894811	-1.4366512492493	-515.0386705291196	-82.62118101002105	-39.82303045584985	-4.518629609670104	-1.843374380502392	-0.9857664779470132	12.70428434822157	-2.122234018197746	3.377269600631118	-2.835418266786828	10.37159468366263	10.37159468366319	0.7056732250278478	-0.8584256372269812	2.400688559873471	-1.022843869250248	-3.684903537114815e-08	1.086872787516745e-07	1.307002227892268e-07	2.03317108096236e-08	-4.812606002832352e-08	-5.649987849120527e-08	-8.682003376857115e-09
0.01	-0.03930117401171821	0.06862804751977482	0.8958852584891485	0.1961435618369609	-0.3222959307080863	-0.479530687535817	-0.1380524762059836	0.07065685998201415	0.07065685998201029	-0.1745006655797254	-0.1143878724878618	-0.06689587346594406	0.003526801928810436	-0.04283112154761954	-0.01823344963560015	-0.009546466087359351	0.1224449311956411	-0.02079198119513844	0.03378928249705828	-0.02935567107251599	0.1003604204660903	0.1003604204660905	0.006345809252345283	-0.007315492932668945	0.02279615867698106	-0.01042544423744804	0.1021099555160718	-0.0988664683926207	-0.02861982017133284	-0.2281300006335309	0.1830534131197574	-0.0108691639175516	-0.0478651424004331	23.27209942190418	-2.264101124584886	3.348736728591164	0.8042046540334595	-515.7615679890978	-83.25057593246871	-39.83325659549124	-4.130842215504901	-1.807544061572347	-0.9347923885507639	11.93721228665247	-2.042159019491093	3.359514812834846	-2.949938558967602	9.802954799718384	9.802954799718183	0.5967385471016468	-0.6624625696325613	2.196913281510999	-1.047629867588837	-7.226489532055507e-08	1.449007896954626e-07	2.091309568491641e-07	5.224788697193057e-08	-2.586396258844338e-07	-1.007153457025774e-07	-1.381379789498329e-08
0.02	-0.03993788931676601	0.06835551027636523	0.8957427768912606	0.1979673378869148	-0.3226052245980447	-0.4790272226007029	-0.1384868607773154	0.07215138119215553	0.07215138119215508	-0.1744058600127054	-0.1144966629977427	-0.06655762544598731	0.00337121333653776	-0.08428179462310957	-0.03623545153058972	-0.01892116075147915	0.2417944536479693	-0.0409631163630438	0.06676885453778146	-0.05728322340436588	0.1981084037976279	0.1981084037976305	0.01259976937523708	-0.01440504379916683	0.04470566774998412	-0.02066029513876932	0.09611957377226717	-0.09477041215246539	-0.02729994081334109	-0.2190786231015765	0.1709591265258265	-0.00883271764932805	-0.04304673670405659	19.4983368923735	-2.621913203693435	3.559004658679621	2.885552265130909	-515.5433117340837	-83.71404929166512	-39.86338717499601	-4.242539915244153	-1.79708483238034	-0.9514121932991099	12.085202599559	-1.998064812751185	3.215327509364097	-2.54979451865358	9.84910725675212	9.849107256753108	0.6873033991370344	-0.8132372239927915	2.223358639077785	-0.984725202025006	-1.07680755269962e-07	1.811143006392507e-07	2.875616909091015e-07	8.416406313423755e-08	-4.69153191740544e-07	-1.449308129139495e-07	-1.894559241310947e-08
0.03	-0.04098315027516799	0.06790476296883868	0.8955071281782437	0.2009697399260437	-0.3231129143345773	-0.4781982260293675	-0.1391924918116414	0.0746107481094137	0.07461074810941934	-0.1742486104965327	-0.1146754485895581	-0.06600376903373692	0.003114959147363939	-0.1245692470155977	-0.05380740563570398	-0.02819861692797325	0.3581180499419423	-0.06045134570978095	0.09889621656024605	-0.08358358272647928	0.2933065042299078	0.2933065042299158	0.01884089063828707	-0.02129207197848033	0.06598844827155256	-0.03050020759055941	0.09177517601966675	-0.09216185768133682	-0.02661659974290797	-0.2152851693034298	0.1666706357941628	-0.007902372828591639	-0.03936535441785582	18.19221769143898	-2.847226933666359	3.651988398515032	3.025296951460782	-515.4923579897993	-83.59908506831569	-39.91221729554454	-3.891687605031761	-1.721243087179032	-0.9145122724444152	11.32073266597095	-1.905730113012463	3.191266370283708	-2.631246528756052	9.286393932558891	9.286393932558902	0.5911937282450039	-0.6174001145316251	2.069161758212193	-0.9701349801954751	-1.367400452142572e-07	2.089246245561684e-07	3.404028189496202e-07	1.143687725056153e-07	-6.407914297964579e-07	-1.777341464592433e-07	-2.157741688871022e-08
